<?xml version="1.0" encoding="UTF-8" standalone="no"?>
<!DOCTYPE svg PUBLIC "-//W3C//DTD SVG 1.1//EN" "http://www.w3.org/Graphics/SVG/1.1/DTD/svg11.dtd">
<svg width="100%" height="100%" viewBox="0 0 195 196" version="1.1" xmlns="http://www.w3.org/2000/svg" xmlns:xlink="http://www.w3.org/1999/xlink" xml:space="preserve" xmlns:serif="http://www.serif.com/" style="fill-rule:evenodd;clip-rule:evenodd;stroke-linejoin:round;stroke-miterlimit:2;">
    <g transform="matrix(1,0,0,1,-0.166486,-2.19749)">
        <g id="Layer1">
            <g transform="matrix(0.868583,-0.83691,0.83691,0.868583,-58.573,93.4933)">
                <circle cx="58.73" cy="63.274" r="37.504" style="fill:rgb(0,195,41);"/>
            </g>
            <g transform="matrix(0.868583,-0.83691,0.83691,0.868583,-7.65762,146.336)">
                <circle cx="58.73" cy="63.274" r="37.504" style="fill:rgb(0,195,41);"/>
            </g>
            <g transform="matrix(0.868583,-0.83691,0.83691,0.868583,-5.39055,41.6172)">
                <circle cx="58.73" cy="63.274" r="37.504" style="fill:rgb(0,195,41);"/>
            </g>
            <g transform="matrix(0.868583,-0.83691,0.83691,0.868583,45.5249,94.4595)">
                <circle cx="58.73" cy="63.274" r="37.504" style="fill:rgb(0,195,41);"/>
            </g>
            <g transform="matrix(0.868583,-0.83691,0.83691,0.868583,-7.6848,95.7277)">
                <circle cx="58.73" cy="63.274" r="37.504" style="fill:rgb(0,195,41);"/>
            </g>
            <g transform="matrix(1.2175,0,0,1.29179,-27.4535,-37.6664)">
                <path d="M129.675,146.312C129.675,146.312 151.214,154.625 164.25,180.887L173.13,173.519C173.13,173.519 167.084,154.247 141.767,135.354C116.45,116.46 129.675,146.312 129.675,146.312Z" style="fill:rgb(0,195,41);"/>
            </g>
        </g>
    </g>
</svg>
