<?xml version="1.0" encoding="UTF-8" standalone="no"?>
<!DOCTYPE svg PUBLIC "-//W3C//DTD SVG 1.1//EN" "http://www.w3.org/Graphics/SVG/1.1/DTD/svg11.dtd">
<svg width="100%" height="100%" viewBox="0 0 198 158" version="1.1" xmlns="http://www.w3.org/2000/svg" xmlns:xlink="http://www.w3.org/1999/xlink" xml:space="preserve" xmlns:serif="http://www.serif.com/" style="fill-rule:evenodd;clip-rule:evenodd;stroke-linejoin:round;stroke-miterlimit:2;">
    <g transform="matrix(1,0,0,1,-1.23665,-34.3536)">
        <g id="Gold">
            <g transform="matrix(1.34512,0,0,1.76504,-29.7667,-98.9521)">
                <path d="M90.227,77.418C90.227,76.374 93.096,75.526 96.63,75.526C100.164,75.526 103.034,76.374 103.034,77.418C103.81,76.425 107.169,75.987 110.53,76.441C113.891,76.895 115.99,78.07 115.214,79.064C116.69,78.219 120.211,78.234 123.07,79.097C125.929,79.961 127.051,81.349 125.575,82.194C127.607,81.58 130.944,82.046 133.021,83.235C135.099,84.424 135.135,85.887 133.102,86.501C135.492,86.179 138.318,87.051 139.41,88.449C140.503,89.846 139.449,91.243 137.06,91.565C139.572,91.565 141.612,92.758 141.612,94.228C141.612,95.697 139.572,96.89 137.06,96.89C139.449,97.213 140.503,98.61 139.41,100.007C138.318,101.405 135.492,102.277 133.102,101.954C135.135,102.568 135.099,104.032 133.021,105.221C130.944,106.409 127.607,106.876 125.575,106.262C127.051,107.107 125.929,108.494 123.07,109.358C120.211,110.222 116.69,110.237 115.214,109.392C115.99,110.385 113.891,111.561 110.53,112.015C107.169,112.469 103.81,112.031 103.034,111.037C103.034,112.082 100.164,112.93 96.63,112.93C93.096,112.93 90.227,112.082 90.227,111.037C89.45,112.031 86.091,112.469 82.73,112.015C79.369,111.561 77.27,110.385 78.047,109.392C76.57,110.237 73.05,110.222 70.191,109.358C67.331,108.494 66.209,107.107 67.686,106.262C65.653,106.876 62.316,106.409 60.239,105.221C58.162,104.032 58.126,102.568 60.158,101.954C57.769,102.277 54.942,101.405 53.85,100.007C52.758,98.61 53.811,97.213 56.201,96.89C53.688,96.89 51.648,95.697 51.648,94.228C51.648,92.758 53.688,91.565 56.201,91.565C53.811,91.243 52.758,89.846 53.85,88.449C54.942,87.051 57.769,86.179 60.158,86.501C58.126,85.887 58.162,84.424 60.239,83.235C62.316,82.046 65.653,81.58 67.686,82.194C66.209,81.349 67.331,79.961 70.191,79.097C73.05,78.234 76.57,78.219 78.047,79.064C77.27,78.07 79.369,76.895 82.73,76.441C86.091,75.987 89.45,76.425 90.227,77.418Z" style="fill:rgb(255,221,126);"/>
            </g>
            <g transform="matrix(1.1583,0,0,1.1583,-13.7683,-30.4328)">
                <path d="M81.58,91.971C86.972,91.336 92.542,91.003 98.242,91.003C103.943,91.003 109.513,91.336 114.904,91.971L147.658,91.971C151.084,91.971 153.865,94.752 153.865,98.178L153.865,103.263C172.025,112.549 183.531,126.297 183.531,141.628C183.531,169.569 145.314,192.253 98.242,192.253C51.171,192.253 12.954,169.569 12.954,141.628C12.954,126.297 24.46,112.549 42.62,103.263L42.62,98.178C42.62,94.752 45.401,91.971 48.827,91.971L81.58,91.971Z" style="fill:rgb(255,248,126);"/>
            </g>
        </g>
    </g>
</svg>
