<?xml version="1.0" encoding="UTF-8" standalone="no"?>
<!DOCTYPE svg PUBLIC "-//W3C//DTD SVG 1.1//EN" "http://www.w3.org/Graphics/SVG/1.1/DTD/svg11.dtd">
<svg width="100%" height="100%" viewBox="0 0 203 164" version="1.1" xmlns="http://www.w3.org/2000/svg" xmlns:xlink="http://www.w3.org/1999/xlink" xml:space="preserve" xmlns:serif="http://www.serif.com/" style="fill-rule:evenodd;clip-rule:evenodd;stroke-linecap:round;stroke-linejoin:round;stroke-miterlimit:1.5;">
    <g transform="matrix(1,0,0,1,1.26335,-31.5311)">
        <g id="Gold">
            <g transform="matrix(1.34512,0,0,1.76504,-29.7667,-99.2746)">
                <path d="M90.227,77.418C90.227,76.374 93.096,75.526 96.63,75.526C100.164,75.526 103.034,76.374 103.034,77.418C103.81,76.425 107.169,75.987 110.53,76.441C113.891,76.895 115.99,78.07 115.214,79.064C116.69,78.219 120.211,78.234 123.07,79.097C125.929,79.961 127.051,81.349 125.575,82.194C127.607,81.58 130.944,82.046 133.021,83.235C135.099,84.424 135.135,85.887 133.102,86.501C135.492,86.179 138.318,87.051 139.41,88.449C140.503,89.846 139.449,91.243 137.06,91.565C139.572,91.565 141.612,92.758 141.612,94.228C141.612,95.697 139.572,96.89 137.06,96.89C139.449,97.213 140.503,98.61 139.41,100.007C138.318,101.405 135.492,102.277 133.102,101.954C135.135,102.568 135.099,104.032 133.021,105.221C130.944,106.409 127.607,106.876 125.575,106.262C127.051,107.107 125.929,108.494 123.07,109.358C120.211,110.222 116.69,110.237 115.214,109.392C115.99,110.385 113.891,111.561 110.53,112.015C107.169,112.469 103.81,112.031 103.034,111.037C103.034,112.082 100.164,112.93 96.63,112.93C93.096,112.93 90.227,112.082 90.227,111.037C89.45,112.031 86.091,112.469 82.73,112.015C79.369,111.561 77.27,110.385 78.047,109.392C76.57,110.237 73.05,110.222 70.191,109.358C67.331,108.494 66.209,107.107 67.686,106.262C65.653,106.876 62.316,106.409 60.239,105.221C58.162,104.032 58.126,102.568 60.158,101.954C57.769,102.277 54.942,101.405 53.85,100.007C52.758,98.61 53.811,97.213 56.201,96.89C53.688,96.89 51.648,95.697 51.648,94.228C51.648,92.758 53.688,91.565 56.201,91.565C53.811,91.243 52.758,89.846 53.85,88.449C54.942,87.051 57.769,86.179 60.158,86.501C58.126,85.887 58.162,84.424 60.239,83.235C62.316,82.046 65.653,81.58 67.686,82.194C66.209,81.349 67.331,79.961 70.191,79.097C73.05,78.234 76.57,78.219 78.047,79.064C77.27,78.07 79.369,76.895 82.73,76.441C86.091,75.987 89.45,76.425 90.227,77.418Z" style="fill:rgb(255,221,126);"/>
                <path d="M89.917,76.171C89.313,75.911 88.539,75.703 87.639,75.579C86.174,75.377 84.356,75.369 82.535,75.603C80.363,75.882 78.668,76.464 77.749,77.092C77.439,77.304 77.2,77.524 77.029,77.749C76.417,77.624 75.724,77.549 74.982,77.53C73.333,77.49 71.431,77.723 69.736,78.224C67.505,78.883 66.209,79.898 65.876,80.757C65.852,80.819 65.832,80.881 65.815,80.943C65.089,80.924 64.323,80.972 63.558,81.085C62.068,81.305 60.589,81.77 59.436,82.42C57.706,83.394 57.128,84.582 57.343,85.523C56.928,85.59 56.519,85.682 56.126,85.795C54.617,86.228 53.34,86.981 52.618,87.889C51.701,89.043 51.803,90.202 52.582,91.116C52.594,91.131 52.607,91.145 52.62,91.16C52.276,91.316 51.961,91.494 51.681,91.688C50.698,92.37 50.14,93.265 50.132,94.228C50.123,95.194 50.683,96.092 51.658,96.787C51.908,96.965 52.187,97.129 52.49,97.276C52.487,97.28 52.483,97.284 52.48,97.288C51.656,98.226 51.551,99.425 52.478,100.63C53.203,101.57 54.509,102.351 56.05,102.811C56.368,102.906 56.695,102.986 57.028,103.052C56.877,104.03 57.498,105.232 59.237,106.238C60.418,106.922 61.944,107.415 63.482,107.657C64.143,107.762 64.806,107.818 65.447,107.825C65.809,108.752 67.17,109.865 69.548,110.593C71.304,111.13 73.28,111.384 74.996,111.358C75.608,111.348 76.189,111.3 76.725,111.218C76.891,111.388 77.09,111.556 77.324,111.719C78.297,112.4 80.095,113.048 82.415,113.369C84.724,113.688 87.034,113.621 88.704,113.284C89.1,113.204 89.465,113.105 89.796,112.992C90.09,113.169 90.433,113.333 90.827,113.48C92.189,113.986 94.28,114.336 96.63,114.34C98.982,114.342 101.075,113.994 102.441,113.491C102.83,113.348 103.169,113.187 103.461,113.014C103.791,113.127 104.154,113.225 104.549,113.306C106.221,113.647 108.537,113.717 110.853,113.402C113.186,113.085 114.994,112.434 115.974,111.751C116.199,111.595 116.392,111.436 116.555,111.274C117.085,111.354 117.659,111.402 118.263,111.412C119.988,111.441 121.975,111.186 123.741,110.648C126.107,109.926 127.475,108.822 127.872,107.893C128.5,107.884 129.149,107.829 129.797,107.728C131.35,107.486 132.891,106.99 134.086,106.301C135.821,105.298 136.461,104.101 136.347,103.114C136.654,103.052 136.956,102.976 137.25,102.889C138.816,102.422 140.142,101.628 140.879,100.674C141.812,99.465 141.727,98.261 140.935,97.306C141.207,97.169 141.458,97.018 141.686,96.856C142.688,96.143 143.262,95.221 143.253,94.228C143.245,93.238 142.674,92.319 141.664,91.618C141.409,91.441 141.126,91.277 140.817,91.131C141.593,90.194 141.687,89.014 140.755,87.838C140.02,86.913 138.72,86.142 137.182,85.701C136.821,85.597 136.447,85.511 136.066,85.444C136.229,84.491 135.627,83.31 133.904,82.339C132.736,81.682 131.238,81.209 129.729,80.987C128.991,80.878 128.253,80.829 127.549,80.84C127.538,80.803 127.524,80.766 127.51,80.729C127.17,79.851 125.854,78.805 123.573,78.131C121.861,77.625 119.94,77.39 118.275,77.431C117.562,77.448 116.892,77.518 116.295,77.633C116.122,77.423 115.892,77.217 115.6,77.018C114.668,76.381 112.951,75.788 110.748,75.505C108.911,75.27 107.077,75.279 105.6,75.482C104.717,75.604 103.954,75.806 103.348,76.059C103.034,75.831 102.631,75.62 102.137,75.442C100.84,74.974 98.856,74.662 96.63,74.676C94.414,74.691 92.443,75.02 91.162,75.503C90.646,75.698 90.231,75.926 89.917,76.171ZM101.857,77.449C101.874,77.84 102.223,78.18 102.721,78.284C103.232,78.391 103.774,78.225 104.046,77.878C104.164,77.729 104.428,77.642 104.737,77.547C105.269,77.383 105.948,77.279 106.707,77.228C107.802,77.153 109.058,77.199 110.313,77.377C111.166,77.498 111.928,77.67 112.566,77.876C112.89,77.98 113.179,78.094 113.428,78.214C113.641,78.317 113.972,78.459 114.09,78.562C113.777,78.968 113.883,79.487 114.343,79.802C114.806,80.119 115.498,80.142 115.996,79.857C116.639,79.495 117.79,79.41 119.053,79.465C120.202,79.515 121.443,79.717 122.567,80.064C123.258,80.278 123.827,80.524 124.253,80.789C124.447,80.91 124.606,81.033 124.721,81.158C124.753,81.194 124.786,81.248 124.806,81.285C124.783,81.301 124.752,81.321 124.728,81.335C124.164,81.658 124,82.249 124.345,82.719C124.69,83.188 125.438,83.39 126.094,83.192C126.934,82.944 128.052,82.961 129.161,83.138C130.239,83.31 131.312,83.65 132.139,84.131C132.683,84.447 133.054,84.755 133.109,85.074C133.142,85.263 132.865,85.336 132.545,85.43C131.824,85.648 131.436,86.247 131.648,86.816C131.859,87.385 132.602,87.739 133.366,87.636C134.256,87.521 135.221,87.634 136.076,87.89C136.921,88.144 137.669,88.542 138.066,89.059C138.284,89.341 138.336,89.621 138.142,89.841C137.894,90.124 137.4,90.283 136.78,90.364C135.963,90.474 135.392,91.042 135.465,91.672C135.538,92.302 136.23,92.786 137.06,92.786C137.864,92.789 138.599,92.961 139.157,93.252C139.627,93.498 139.974,93.831 139.971,94.228C139.967,94.62 139.604,94.94 139.135,95.178C138.581,95.459 137.851,95.613 137.06,95.61C136.189,95.61 135.463,96.117 135.386,96.778C135.31,97.439 135.909,98.035 136.766,98.151C137.353,98.232 137.818,98.391 138.049,98.662C138.215,98.855 138.136,99.096 137.942,99.341C137.554,99.832 136.822,100.196 136.008,100.432C135.185,100.669 134.258,100.763 133.407,100.644C132.525,100.525 131.667,100.934 131.423,101.591C131.178,102.248 131.626,102.939 132.459,103.191C132.602,103.235 132.771,103.331 132.836,103.37C132.83,103.387 132.82,103.41 132.812,103.426C132.779,103.489 132.728,103.551 132.669,103.614C132.501,103.795 132.258,103.969 131.957,104.14C131.159,104.593 130.125,104.903 129.092,105.059C128.058,105.214 127.016,105.224 126.238,104.987C125.4,104.733 124.445,104.992 124.004,105.591C123.614,106.122 123.733,106.775 124.266,107.204C124.198,107.263 124.118,107.327 124.042,107.375C123.638,107.632 123.079,107.865 122.399,108.068C121.319,108.391 120.128,108.569 119.028,108.609C117.91,108.649 116.885,108.595 116.319,108.27C115.616,107.868 114.638,107.901 113.984,108.349C113.478,108.695 113.275,109.215 113.418,109.699C113.242,109.803 112.965,109.956 112.719,110.048C112.051,110.295 111.192,110.495 110.208,110.627C109.01,110.788 107.813,110.82 106.769,110.741C106.084,110.689 105.471,110.592 104.992,110.44C104.827,110.388 104.492,110.338 104.589,110.269L104.593,110.268C104.154,109.751 103.324,109.508 102.541,109.672C101.854,109.816 101.348,110.242 101.212,110.759C101.068,110.83 100.754,110.978 100.49,111.056C99.503,111.349 98.136,111.519 96.63,111.52C95.123,111.522 93.754,111.358 92.765,111.067C92.493,110.987 92.168,110.836 92.025,110.766C91.892,110.255 91.391,109.833 90.713,109.69C89.935,109.527 89.111,109.771 88.681,110.287C88.635,110.31 88.429,110.413 88.279,110.46C87.798,110.613 87.183,110.712 86.494,110.766C85.448,110.846 84.247,110.818 83.045,110.66C82.055,110.529 81.191,110.331 80.519,110.084C80.253,109.986 79.954,109.819 79.774,109.712C79.926,109.238 79.732,108.724 79.235,108.384C78.603,107.951 77.658,107.92 76.979,108.308C76.405,108.64 75.365,108.704 74.228,108.665C73.121,108.627 71.921,108.448 70.833,108.123C70.143,107.917 69.577,107.681 69.167,107.421C69.076,107.363 68.942,107.291 68.843,107.226C69.425,106.821 69.574,106.157 69.181,105.623C68.762,105.053 67.852,104.806 67.054,105.048C66.263,105.291 65.203,105.286 64.149,105.129C63.101,104.973 62.052,104.661 61.242,104.203C60.813,103.96 60.495,103.719 60.355,103.464C60.261,103.294 60.484,103.2 60.762,103.115C61.544,102.879 61.964,102.23 61.734,101.614C61.505,100.997 60.7,100.613 59.872,100.725C59.002,100.846 58.054,100.752 57.213,100.509C56.374,100.268 55.622,99.89 55.222,99.384C55.002,99.107 54.926,98.832 55.114,98.613C55.359,98.325 55.849,98.147 56.473,98.06C57.268,97.952 57.824,97.399 57.754,96.786C57.683,96.173 57.009,95.702 56.201,95.702C55.383,95.706 54.629,95.546 54.057,95.256C53.551,95 53.169,94.651 53.165,94.228C53.161,93.801 53.526,93.437 54.033,93.173C54.61,92.872 55.37,92.693 56.201,92.689C56.965,92.689 57.603,92.244 57.67,91.664C57.736,91.084 57.211,90.561 56.458,90.459C55.798,90.373 55.276,90.195 55.012,89.894C54.793,89.645 54.836,89.328 55.082,89.008C55.492,88.474 56.263,88.059 57.137,87.796C58.014,87.533 59.004,87.419 59.917,87.537C60.615,87.631 61.292,87.307 61.485,86.788C61.679,86.269 61.325,85.723 60.667,85.524C60.279,85.41 59.981,85.289 60.02,85.06C60.079,84.721 60.463,84.387 61.042,84.05C61.884,83.561 62.976,83.214 64.074,83.039C65.209,82.858 66.355,82.845 67.215,83.099C67.81,83.279 68.488,83.095 68.801,82.67C69.114,82.244 68.965,81.708 68.453,81.415C68.386,81.377 68.297,81.366 68.302,81.316C68.31,81.245 68.364,81.175 68.433,81.1C68.554,80.968 68.721,80.838 68.926,80.711C69.36,80.441 69.94,80.189 70.645,79.971C71.783,79.62 73.038,79.417 74.201,79.366C75.499,79.309 76.681,79.405 77.343,79.778C77.791,80.034 78.413,80.013 78.83,79.728C79.239,79.448 79.336,78.99 79.068,78.627C79.108,78.578 79.208,78.462 79.305,78.393C79.621,78.17 80.08,77.965 80.645,77.783C81.29,77.576 82.061,77.402 82.925,77.279C84.192,77.1 85.46,77.055 86.566,77.13C87.339,77.183 88.03,77.29 88.572,77.457C88.912,77.562 89.194,77.665 89.324,77.828C89.566,78.138 90.05,78.286 90.506,78.19C90.961,78.095 91.277,77.779 91.277,77.418C91.279,77.311 91.453,77.264 91.616,77.177C92.018,76.962 92.595,76.791 93.284,76.656C94.236,76.468 95.39,76.367 96.63,76.375C97.867,76.383 99.014,76.503 99.96,76.703C100.634,76.844 101.195,77.024 101.585,77.241C101.694,77.301 101.821,77.416 101.857,77.449ZM104.593,110.268L104.63,110.313C104.619,110.299 104.609,110.262 104.593,110.268ZM68.766,107.172C68.705,107.123 68.684,107.085 68.749,107.07C68.805,107.058 68.795,107.11 68.766,107.172ZM114.091,78.562C114.145,78.61 114.154,78.65 114.085,78.673C114.036,78.69 114.062,78.603 114.091,78.562Z"/>
            </g>
            <g transform="matrix(1.1583,0,0,1.1583,-13.7683,-30.4328)">
                <path d="M81.58,91.971C86.972,91.336 92.542,91.003 98.242,91.003C103.943,91.003 109.513,91.336 114.904,91.971L147.658,91.971C151.084,91.971 153.865,94.752 153.865,98.178L153.865,103.263C172.025,112.549 183.531,126.297 183.531,141.628C183.531,169.569 145.314,192.253 98.242,192.253C51.171,192.253 12.954,169.569 12.954,141.628C12.954,126.297 24.46,112.549 42.62,103.263L42.62,98.178C42.62,94.752 45.401,91.971 48.827,91.971L81.58,91.971Z" style="fill:rgb(255,248,126);stroke:black;stroke-width:4.32px;"/>
            </g>
        </g>
    </g>
</svg>
