<?xml version="1.0" encoding="UTF-8" standalone="no"?>
<!DOCTYPE svg PUBLIC "-//W3C//DTD SVG 1.1//EN" "http://www.w3.org/Graphics/SVG/1.1/DTD/svg11.dtd">
<svg width="100%" height="100%" viewBox="0 0 198 193" version="1.1" xmlns="http://www.w3.org/2000/svg" xmlns:xlink="http://www.w3.org/1999/xlink" xml:space="preserve" xmlns:serif="http://www.serif.com/" style="fill-rule:evenodd;clip-rule:evenodd;stroke-linecap:round;stroke-linejoin:round;stroke-miterlimit:1.5;">
    <g transform="matrix(1,0,0,1,-0.739326,-4.90615)">
        <path d="M16.715,153.913C7.014,136.07 3.239,110.305 3.239,95.979C3.239,58.773 44.849,7.406 99.823,7.406C154.798,7.406 193.697,48.23 195.803,97.491C196.402,111.522 191.986,136.949 185.93,154.272C188.782,156.168 190.664,159.41 190.664,163.089L190.664,184.25C190.664,190.09 185.923,194.831 180.083,194.831L135.343,194.831C129.504,194.831 124.763,190.09 124.763,184.25L124.763,163.089C124.763,157.25 129.504,152.509 135.343,152.509L140.911,152.509C145.53,143.719 151.789,128.104 149.351,111.318C145.426,84.303 112.813,83.438 101.306,83.265C91.929,83.123 56.64,84.097 54.228,110.995C52.983,124.876 57.018,140.776 61.013,152.509L66.722,152.509C72.561,152.509 77.302,157.25 77.302,163.089L77.302,184.25C77.302,190.09 72.561,194.831 66.722,194.831L21.982,194.831C16.142,194.831 11.401,190.09 11.401,184.25L11.401,163.089C11.401,159.167 13.54,155.74 16.715,153.913Z" style="fill:rgb(214,172,230);stroke:black;stroke-width:5px;"/>
    </g>
</svg>
