<?xml version="1.0" encoding="UTF-8" standalone="no"?>
<!DOCTYPE svg PUBLIC "-//W3C//DTD SVG 1.1//EN" "http://www.w3.org/Graphics/SVG/1.1/DTD/svg11.dtd">
<svg width="100%" height="100%" viewBox="0 0 193 188" version="1.1" xmlns="http://www.w3.org/2000/svg" xmlns:xlink="http://www.w3.org/1999/xlink" xml:space="preserve" xmlns:serif="http://www.serif.com/" style="fill-rule:evenodd;clip-rule:evenodd;stroke-linejoin:round;stroke-miterlimit:2;">
    <g transform="matrix(1,0,0,1,-3.23933,-7.40615)">
        <g id="Layer1">
            <path d="M136.488,159.893C136.488,159.893 153.078,136.973 149.351,111.318C145.426,84.303 112.813,83.438 101.306,83.265C91.929,83.123 56.64,84.097 54.228,110.995C51.914,136.801 67.847,169.586 67.847,169.586C53.777,173.176 40.829,176.11 30.612,169.854C10.464,157.515 3.239,115.799 3.239,95.979C3.239,58.773 44.849,7.406 99.823,7.406C154.798,7.406 193.697,48.23 195.803,97.491C196.649,117.298 187.499,159.813 177.851,170.194C167.18,181.674 153.217,165.382 136.488,159.893Z" style="fill:rgb(214,172,230);"/>
            <path d="M77.302,163.089C77.302,157.25 72.561,152.509 66.722,152.509L21.982,152.509C16.142,152.509 11.401,157.25 11.401,163.089L11.401,184.25C11.401,190.09 16.142,194.831 21.982,194.831L66.722,194.831C72.561,194.831 77.302,190.09 77.302,184.25L77.302,163.089Z" style="fill:rgb(214,172,230);"/>
            <g transform="matrix(1,0,0,1,113.362,0)">
                <path d="M77.302,163.089C77.302,157.25 72.561,152.509 66.722,152.509L21.982,152.509C16.142,152.509 11.401,157.25 11.401,163.089L11.401,184.25C11.401,190.09 16.142,194.831 21.982,194.831L66.722,194.831C72.561,194.831 77.302,190.09 77.302,184.25L77.302,163.089Z" style="fill:rgb(214,172,230);"/>
            </g>
        </g>
    </g>
</svg>
